<?xml version="1.0" standalone="no"?>
<!DOCTYPE svg PUBLIC "-//W3C//DTD SVG 20010904//EN"
 "http://www.w3.org/TR/2001/REC-SVG-20010904/DTD/svg10.dtd">
<svg version="1.0" xmlns="http://www.w3.org/2000/svg"
 width="400.000000pt" height="812.000000pt" viewBox="0 0 400.000000 812.000000"
 preserveAspectRatio="xMidYMid meet">
<metadata>
Created by potrace 1.15, written by Peter Selinger 2001-2017
</metadata>
<g transform="translate(0.000000,812.000000) scale(0.100000,-0.100000)"
fill="#000000" stroke="none">
<path d="M2890 8098 c-42 -28 -110 -128 -144 -211 -14 -34 -68 -170 -119 -302
-107 -271 -304 -747 -399 -965 -39 -87 -100 -201 -153 -285 -99 -156 -166
-294 -185 -383 -14 -66 -15 -59 74 -366 25 -88 57 -219 71 -290 34 -170 69
-285 97 -314 13 -13 51 -41 85 -63 75 -48 105 -85 169 -204 82 -155 94 -169
199 -226 105 -56 133 -84 227 -224 154 -230 250 -504 342 -985 30 -152 106
-615 106 -642 0 -5 4 -8 10 -8 17 0 62 206 105 487 36 240 52 282 161 428 80
107 220 212 380 285 46 22 84 40 84 42 0 10 -73 205 -99 263 -17 39 -38 99
-46 135 -9 36 -29 94 -45 130 -25 59 -80 344 -68 356 3 2 35 -11 71 -30 71
-35 139 -52 162 -39 11 7 4 21 -31 68 -80 105 -145 206 -171 263 -24 50 -26
66 -25 183 1 71 6 137 11 148 6 10 28 29 48 42 21 12 39 24 41 25 2 1 -1 12
-8 23 -6 13 -29 26 -55 33 -43 11 -45 14 -45 48 0 46 -20 84 -46 88 -12 2 -61
-11 -109 -27 -69 -24 -105 -31 -166 -31 l-77 0 -75 79 c-151 162 -237 297
-237 376 0 23 16 79 35 130 46 115 87 255 174 590 77 300 109 402 146 475 23
45 105 143 180 213 43 41 144 87 220 100 36 6 65 14 65 18 0 31 -360 318 -505
401 -160 92 -368 188 -405 188 -9 0 -32 -10 -50 -22z m497 -3002 c21 -18 52
-40 69 -49 17 -9 37 -29 43 -46 41 -99 -35 -133 -396 -176 -229 -27 -301 -30
-352 -12 -56 20 -61 40 -21 82 19 20 61 54 93 76 69 45 81 43 129 -26 17 -24
44 -49 60 -56 42 -17 129 -5 187 27 55 29 74 60 85 134 7 46 29 80 53 80 7 0
30 -15 50 -34z"/>
<path d="M1365 6392 c-16 -11 -36 -27 -44 -36 -8 -10 -32 -26 -53 -37 -37 -19
-38 -21 -38 -72 0 -103 -45 -187 -92 -173 -32 10 -221 37 -225 33 -2 -2 41
-26 94 -53 54 -27 99 -56 100 -64 1 -8 -35 -45 -82 -83 l-85 -68 -45 27 c-25
14 -48 24 -51 21 -3 -2 4 -20 15 -38 31 -51 28 -107 -9 -155 -83 -108 -85
-113 -85 -191 0 -49 -4 -73 -12 -73 -19 0 -68 46 -88 84 l-20 36 -73 0 c-56 0
-94 7 -162 31 -58 20 -98 29 -115 25 -25 -6 -28 -13 -40 -87 -5 -31 -10 -38
-37 -43 -34 -7 -68 -32 -68 -51 0 -6 12 -18 26 -26 14 -7 37 -26 50 -42 23
-27 24 -36 24 -156 0 -123 -1 -128 -34 -196 -18 -39 -72 -124 -120 -189 -56
-76 -84 -122 -78 -128 15 -15 102 7 172 42 33 16 61 30 63 30 3 0 2 -21 -1
-47 l-5 -48 21 19 c12 10 35 43 51 72 17 29 35 55 40 59 6 3 24 -1 40 -10 l30
-15 -6 -94 c-4 -67 -2 -104 7 -125 17 -43 30 -39 30 9 0 22 7 56 15 76 12 30
17 34 34 25 36 -20 66 -73 66 -117 0 -31 -8 -53 -32 -87 -24 -33 -33 -56 -33
-86 0 -26 -5 -41 -12 -41 -15 0 -95 39 -153 75 -22 13 -41 22 -43 20 -11 -10
38 -59 94 -95 105 -66 107 -89 24 -255 -76 -152 -93 -240 -66 -336 25 -91 87
-212 100 -198 3 3 -2 36 -10 74 -30 140 -32 157 -22 191 5 19 20 41 33 49 14
8 37 22 52 31 l27 17 -37 19 c-42 21 -43 25 -22 96 36 119 112 147 164 60 l19
-30 7 54 c9 67 13 74 61 103 l39 24 -30 1 c-16 0 -59 -9 -93 -20 -35 -11 -77
-20 -94 -20 -28 0 -30 2 -23 28 3 15 16 37 27 49 27 29 120 77 191 99 59 18
59 18 37 36 -27 22 -59 22 -130 -1 -30 -10 -58 -17 -62 -15 -13 8 20 69 77
141 92 117 94 118 425 118 301 0 291 -2 360 62 44 41 80 24 80 -36 0 -21 -15
-65 -34 -103 -19 -38 -31 -68 -26 -68 19 0 82 85 131 180 63 120 119 187 195
232 30 18 54 36 54 41 0 19 -108 121 -150 142 -39 19 -66 23 -200 28 -189 7
-226 17 -344 98 -109 74 -164 124 -222 202 -79 106 -78 165 5 220 23 15 58 52
78 83 36 54 38 55 72 49 19 -4 53 -16 74 -27 21 -10 41 -17 44 -15 2 3 -21 29
-51 58 l-56 53 22 23 c12 13 38 28 57 33 44 11 288 -4 381 -24 85 -19 109 -6
43 22 -58 25 -170 62 -265 87 l-68 18 0 51 c0 33 9 70 24 103 23 50 27 53 88
71 l63 20 -52 7 c-31 5 -53 13 -53 20 0 7 13 30 28 51 52 72 51 79 -3 46z
m-681 -1284 c7 -13 17 -43 20 -68 14 -96 80 -148 202 -158 l65 -5 64 69 64 69
70 -49 c127 -87 146 -133 63 -156 -57 -16 -136 -12 -355 16 -332 42 -397 65
-397 141 0 36 5 42 100 118 63 50 84 54 104 23z"/>
<path d="M1772 4467 c19 -130 -13 -286 -70 -339 -44 -42 -68 -49 -190 -59
-161 -12 -266 -45 -340 -105 -47 -39 -36 -154 20 -206 17 -15 34 -28 38 -28 4
0 13 29 20 65 15 79 55 146 103 168 46 22 131 21 183 -2 37 -17 104 -84 104
-104 0 -4 16 -42 36 -84 25 -52 39 -72 44 -62 4 8 13 77 20 154 12 141 15 151
64 237 52 90 54 244 5 359 -34 78 -47 80 -37 6z"/>
<path d="M2226 4478 c-42 -87 -57 -212 -37 -301 5 -22 26 -66 46 -98 34 -56
37 -67 50 -197 8 -75 15 -147 15 -160 0 -39 19 -15 71 93 50 107 73 131 138
153 47 16 126 15 160 -3 60 -30 111 -126 111 -207 0 -33 9 -35 44 -7 37 29 58
74 60 130 1 38 -4 53 -24 74 -58 62 -173 101 -342 114 -175 15 -219 46 -254
181 -12 49 -15 91 -11 173 2 59 3 107 2 107 -2 0 -15 -24 -29 -52z"/>
<path d="M1402 3697 c-37 -19 -42 -25 -37 -46 9 -35 56 -101 108 -148 41 -38
48 -41 77 -33 17 5 37 7 44 4 15 -6 70 -71 115 -136 53 -79 66 -82 298 -83
228 0 226 -1 291 86 18 24 51 66 74 92 35 42 44 48 67 41 59 -16 80 -3 157 99
56 75 57 100 4 127 l-40 20 -43 -38 c-54 -50 -77 -62 -121 -62 -44 0 -59 -16
-76 -77 -16 -56 -90 -137 -155 -168 -61 -30 -247 -34 -309 -7 -70 32 -142 104
-166 170 -29 76 -35 82 -86 82 -38 0 -50 6 -99 50 -30 28 -56 50 -58 49 -1 0
-21 -10 -45 -22z"/>
<path d="M1615 2949 c-16 -5 -66 -16 -110 -25 -44 -9 -89 -22 -100 -29 -23
-14 -222 -281 -272 -364 -37 -61 -41 -86 -17 -95 24 -9 52 12 183 143 65 65
136 126 157 136 52 26 164 30 311 14 152 -18 335 -18 496 0 157 17 258 11 312
-17 23 -11 77 -58 121 -104 76 -79 189 -178 203 -178 3 0 12 4 20 9 29 18 -11
86 -206 348 l-83 112 -58 11 c-31 7 -89 21 -128 31 -87 23 -117 24 -191 2 -81
-25 -401 -24 -482 0 -60 19 -109 20 -156 6z"/>
<path d="M1803 2469 c-14 -21 -30 -39 -35 -39 -5 0 -22 10 -39 22 l-31 23 -28
-35 -28 -35 -47 17 c-45 17 -48 17 -85 -2 -22 -11 -57 -20 -80 -20 -39 0 -40
-1 -34 -27 4 -16 15 -46 25 -68 11 -24 19 -64 19 -101 0 -69 21 -148 50 -184
19 -25 20 -25 50 -7 35 19 75 22 85 7 8 -13 60 -13 104 0 27 7 43 6 76 -9 l42
-19 6 -68 c4 -38 9 -80 12 -94 5 -21 1 -29 -19 -40 -32 -17 -33 -34 -3 -55 15
-10 22 -26 22 -47 0 -26 5 -33 25 -38 33 -8 30 -30 -12 -91 -31 -47 -35 -49
-73 -47 -36 3 -41 7 -50 36 -5 17 -12 32 -15 32 -3 0 -18 -22 -35 -48 -27 -44
-29 -45 -33 -22 -7 44 -19 43 -64 -4 -39 -40 -50 -46 -85 -46 -49 0 -67 18
-58 59 8 36 -3 43 -45 31 -29 -8 -35 -6 -52 16 l-20 24 -36 -31 c-38 -34 -41
-33 -72 21 -8 13 -12 13 -39 -3 l-30 -18 -23 41 c-21 37 -38 51 -38 33 0 -5
-9 -23 -20 -41 -20 -32 -20 -32 -50 -17 -26 14 -34 14 -57 1 -16 -7 -54 -22
-86 -32 -102 -32 -101 -64 8 -184 104 -115 118 -148 126 -290 4 -63 7 -116 8
-117 1 0 16 -1 35 0 39 1 78 -22 103 -60 14 -20 18 -46 17 -101 l-1 -74 19 31
c11 17 24 31 28 31 16 0 40 -83 40 -140 l0 -60 34 38 c19 20 37 34 41 31 3 -4
11 -34 17 -68 10 -54 14 -60 31 -55 19 6 20 3 14 -67 -5 -69 -5 -72 9 -46 8
15 18 27 23 27 4 0 11 -29 14 -65 10 -101 20 -109 48 -36 13 33 27 61 31 61 9
0 28 -93 28 -136 0 -47 18 -35 26 17 7 40 7 40 26 21 11 -10 30 -48 43 -83 13
-35 24 -57 25 -49 0 8 5 22 10 30 8 12 15 9 44 -19 l36 -35 65 13 c36 7 67 12
69 10 1 -2 24 -39 51 -83 l48 -78 43 68 c24 38 47 75 51 83 8 12 19 12 77 -1
l67 -15 27 33 c32 41 39 42 54 9 11 -25 12 -24 30 32 10 32 27 69 37 83 l19
24 12 -44 c14 -53 24 -41 34 40 10 81 21 94 41 45 36 -92 37 -92 46 -70 4 11
8 38 8 60 1 47 10 85 21 85 4 0 12 -10 19 -22 9 -19 11 -11 7 46 -5 64 -4 68
14 63 20 -5 23 1 44 96 8 36 19 34 55 -10 l31 -38 0 68 c0 72 22 143 41 132 6
-4 19 -20 28 -36 l18 -29 -4 72 c-4 61 -1 78 16 105 26 41 66 67 105 68 38 0
44 18 45 135 2 110 23 157 124 270 90 100 100 125 62 157 -14 13 -32 23 -40
23 -8 0 -40 12 -72 26 -55 24 -59 25 -86 9 -16 -9 -30 -15 -31 -13 -1 1 -13
20 -26 42 l-23 39 -25 -41 -24 -42 -31 16 c-33 17 -38 14 -67 -36 -7 -13 -13
-10 -37 13 -34 32 -44 33 -67 8 -14 -16 -23 -18 -49 -10 -38 11 -45 5 -49 -46
-3 -39 -4 -40 -45 -43 -39 -3 -47 1 -91 42 -27 25 -51 46 -54 46 -3 0 -8 -15
-12 -32 l-7 -33 -31 48 -32 49 -15 -34 c-13 -27 -22 -34 -52 -36 -34 -3 -39 0
-74 54 -30 44 -36 61 -28 73 6 9 18 15 27 15 11 -1 16 7 16 28 0 20 9 39 25
54 32 29 31 38 -1 53 -23 10 -25 16 -20 44 3 18 9 61 12 96 7 63 7 64 49 82
35 15 48 17 74 8 30 -10 50 -9 127 6 22 5 40 2 58 -10 22 -15 29 -15 43 -4 30
26 54 98 62 192 4 51 15 106 24 124 10 18 17 41 17 53 0 17 -6 20 -39 20 -22
0 -55 9 -75 20 -32 20 -37 20 -71 5 -52 -21 -69 -19 -85 9 -18 35 -38 39 -67
16 -14 -11 -30 -20 -34 -20 -5 0 -21 18 -35 40 l-27 41 -33 -37 c-30 -32 -37
-35 -66 -28 -42 10 -124 10 -166 0 -29 -7 -36 -4 -67 27 l-36 36 -26 -40z"/>
</g>
</svg>
