<?xml version="1.0" standalone="no"?>
<!DOCTYPE svg PUBLIC "-//W3C//DTD SVG 20010904//EN"
 "http://www.w3.org/TR/2001/REC-SVG-20010904/DTD/svg10.dtd">
<svg version="1.0" xmlns="http://www.w3.org/2000/svg"
 width="450.000000pt" height="300.000000pt" viewBox="0 0 450.000000 300.000000"
 preserveAspectRatio="xMidYMid meet">
<metadata>
Created by potrace 1.15, written by Peter Selinger 2001-2017
</metadata>
<g transform="translate(0.000000,300.000000) scale(0.100000,-0.100000)"
fill="#000000" stroke="none">
<path d="M2760 1977 c-19 -5 -50 -23 -68 -40 -77 -74 -56 -204 41 -248 173
-78 337 108 217 245 -44 49 -109 64 -190 43z"/>
<path d="M721 1610 c-72 -17 -126 -86 -117 -148 8 -54 49 -97 132 -138 90 -46
128 -85 119 -123 -21 -88 -146 -76 -197 19 -24 45 -39 44 -57 -4 -15 -38 -14
-39 13 -61 58 -46 186 -60 253 -28 49 23 88 86 87 138 -1 56 -26 90 -87 119
-29 13 -74 34 -101 46 -99 46 -91 150 12 150 36 0 92 -45 92 -74 0 -25 20 -28
29 -4 24 65 24 65 -21 86 -52 25 -112 33 -157 22z"/>
<path d="M1187 1608 c-20 -5 -59 -30 -85 -54 -126 -113 -120 -363 10 -430 52
-27 163 -16 223 21 45 28 95 89 82 101 -3 3 -16 -6 -30 -20 -13 -13 -43 -29
-64 -35 -106 -29 -173 41 -173 181 0 81 17 143 50 178 48 52 109 35 140 -39
17 -41 34 -39 48 6 13 44 11 48 -36 72 -48 24 -117 32 -165 19z"/>
<path d="M1460 1605 c0 -8 5 -15 10 -15 15 0 13 -453 -2 -468 -9 -9 8 -12 77
-12 85 0 87 1 72 18 -14 15 -17 40 -17 125 l0 107 80 0 80 0 0 -109 c0 -63 -4
-112 -10 -116 -27 -17 -2 -25 77 -25 68 0 84 3 75 12 -15 15 -17 468 -2 468 6
0 10 7 10 15 0 12 -16 15 -84 15 -86 0 -108 -8 -81 -30 11 -9 15 -33 15 -81
l0 -69 -75 0 -75 0 0 75 c0 43 4 75 10 75 6 0 10 7 10 15 0 12 -16 15 -85 15
-69 0 -85 -3 -85 -15z"/>
<path d="M2102 1603 c15 -17 11 -34 -52 -241 -44 -146 -74 -228 -86 -237 -17
-13 -13 -14 39 -15 54 0 58 2 52 20 -5 17 21 113 77 290 11 34 13 31 79 -170
57 -175 68 -201 76 -180 5 14 36 102 68 195 32 94 61 173 65 178 3 4 26 -62
50 -147 36 -129 41 -158 30 -171 -11 -13 -2 -15 81 -15 84 1 92 2 75 15 -13
10 -38 82 -82 237 l-62 223 21 17 c21 17 20 18 -54 18 l-75 0 -51 -147 -50
-146 -49 144 -49 144 -60 3 c-56 3 -58 2 -43 -15z"/>
<path d="M2710 1609 c0 -4 7 -9 15 -13 23 -8 23 -466 0 -466 -8 0 -15 -4 -15
-10 0 -6 46 -10 118 -10 99 1 114 3 100 14 -16 12 -18 35 -18 234 0 183 3 223
15 236 8 8 15 16 15 18 0 2 -52 3 -115 3 -63 0 -115 -3 -115 -6z"/>
<path d="M2986 1611 c-3 -5 1 -11 9 -15 13 -4 15 -40 15 -234 0 -164 -3 -231
-12 -240 -17 -17 260 -17 299 0 50 21 84 49 111 92 24 37 27 50 27 131 0 80
-3 95 -27 137 -35 58 -88 103 -147 123 -49 17 -266 22 -275 6z m271 -71 c55
-33 78 -90 78 -197 0 -77 -3 -96 -21 -119 -31 -42 -67 -65 -111 -71 -70 -9
-73 0 -73 211 0 100 3 186 7 189 14 14 89 6 120 -13z"/>
<path d="M3465 1610 c-4 -6 -9 -36 -11 -68 -5 -56 -5 -57 10 -26 19 42 35 50
95 46 l51 -4 0 -209 c0 -177 -2 -211 -15 -215 -37 -15 -8 -24 73 -24 75 1 85
2 69 14 -16 12 -17 33 -15 227 l3 213 55 -3 c60 -3 77 -12 91 -49 15 -39 17
-22 6 46 l-10 62 -198 0 c-124 0 -200 -4 -204 -10z"/>
</g>
</svg>
