<?xml version="1.0" standalone="no"?>
<!DOCTYPE svg PUBLIC "-//W3C//DTD SVG 20010904//EN"
 "http://www.w3.org/TR/2001/REC-SVG-20010904/DTD/svg10.dtd">
<svg version="1.0" xmlns="http://www.w3.org/2000/svg"
 width="290.000000pt" height="300.000000pt" viewBox="0 0 290.000000 300.000000"
 preserveAspectRatio="xMidYMid meet">
<metadata>
Created by potrace 1.15, written by Peter Selinger 2001-2017
</metadata>
<g transform="translate(0.000000,300.000000) scale(0.100000,-0.100000)"
fill="#000000" stroke="none">
<path d="M1 2553 c0 -372 3 -443 13 -419 l13 29 7 -27 c4 -15 4 -32 0 -38 -4
-6 -3 -8 4 -4 6 3 14 20 17 38 6 24 9 28 16 16 11 -20 4 -101 -9 -106 -5 -1
-8 -12 -5 -22 3 -11 1 -20 -3 -20 -5 0 -9 -15 -9 -32 0 -27 -4 -34 -22 -36
-18 -3 -23 -10 -23 -32 0 -16 5 -30 11 -32 9 -3 9 -9 0 -25 -6 -12 -11 -30
-11 -39 0 -16 1 -16 15 2 13 18 14 17 15 -18 0 -20 -4 -49 -10 -63 -5 -14 -13
-71 -17 -126 l-6 -100 32 30 c43 40 91 55 186 55 65 1 89 -4 128 -23 62 -30
112 -96 138 -182 l21 -68 -27 -45 c-14 -25 -34 -47 -43 -49 -15 -4 -15 -5 -1
-6 13 -1 15 -11 13 -53 l-3 -53 9 45 c21 98 70 172 145 215 45 27 116 36 165
20 l25 -8 -23 19 c-18 15 -21 25 -16 52 8 40 27 42 22 2 -4 -40 33 -61 96 -55
70 7 73 -3 47 -153 -38 -220 -86 -409 -111 -437 -9 -11 -20 -29 -24 -40 -5
-15 -9 -16 -15 -6 -6 10 -12 4 -20 -20 -6 -19 -20 -45 -30 -59 l-19 -24 -11
42 c-13 46 -6 298 10 412 5 36 11 74 12 86 1 11 8 28 16 37 7 10 9 17 4 17
-15 0 -33 -23 -33 -42 0 -9 -14 -28 -31 -40 -20 -15 -48 -57 -78 -118 -25 -53
-57 -110 -70 -128 l-23 -33 37 15 c59 25 75 20 38 -12 -30 -25 -31 -28 -18
-52 23 -40 18 -88 -16 -149 -18 -31 -40 -66 -50 -79 -22 -28 -11 -68 26 -95
24 -17 26 -17 73 7 27 14 63 36 80 50 16 15 32 26 36 26 12 0 26 -81 20 -122
-4 -32 -3 -39 5 -28 16 22 13 102 -5 146 -15 35 -15 39 2 51 23 17 49 16 107
-1 50 -15 60 -10 84 39 13 26 16 135 3 115 -7 -10 -10 -11 -10 -2 0 6 -5 12
-11 12 -6 0 -9 -7 -5 -15 7 -19 -14 -19 -39 -1 -19 13 -18 15 10 56 16 23 35
44 42 47 7 3 19 28 28 56 9 29 19 58 22 66 3 9 1 11 -6 7 -20 -13 -11 18 19
63 39 60 109 131 129 132 10 0 12 2 3 6 -17 7 -5 23 19 23 10 0 19 3 19 8 0
13 -79 92 -92 92 -26 0 -148 91 -223 167 -86 87 -115 137 -145 247 -29 110
-29 110 39 71 33 -18 77 -39 98 -45 21 -7 47 -16 58 -20 13 -5 28 -3 38 5 33
24 19 53 -55 125 -114 110 -133 113 -175 30 l-23 -44 -2 54 c-1 30 -1 70 0 88
2 48 85 199 140 256 54 55 151 130 159 122 3 -2 -5 -19 -18 -37 -12 -18 -28
-62 -35 -97 -14 -74 -1 -135 41 -203 24 -38 54 -65 41 -38 -3 8 -9 22 -12 32
-4 9 -10 17 -16 17 -15 0 -48 89 -48 129 0 75 29 143 81 194 27 26 55 47 62
45 7 -1 24 6 39 16 18 12 54 20 106 23 71 5 86 3 136 -20 77 -36 148 -112 171
-182 9 -30 20 -55 25 -55 4 0 10 14 14 32 12 61 110 166 180 191 10 4 16 10
13 13 -10 11 -98 -47 -139 -90 -22 -23 -44 -53 -50 -68 -13 -37 -22 -35 -43
11 -27 60 -110 138 -172 161 -30 11 -58 20 -64 20 -6 0 -8 4 -5 9 3 5 27 12
53 15 71 10 155 27 151 31 -2 2 -57 -3 -123 -10 -66 -8 -121 -12 -123 -10 -2
2 -1 17 3 34 9 44 59 52 143 26 22 -7 23 -6 11 13 -11 17 -10 23 2 38 11 13
11 18 2 21 -15 5 -44 62 -45 89 0 11 3 27 7 37 9 21 -9 22 -49 2 -28 -15 -76
-21 -76 -9 0 14 47 43 63 38 16 -5 21 5 20 44 -1 15 9 16 25 0 13 -13 42 6 42
28 0 8 5 14 10 14 6 0 10 7 10 15 0 8 4 15 9 15 5 0 14 -7 21 -15 7 -8 23 -15
35 -15 19 0 23 -7 28 -44 4 -25 18 -91 32 -147 14 -56 23 -104 21 -106 -2 -3
-13 16 -24 40 -39 89 -127 226 -137 215 -6 -6 33 -82 66 -129 18 -26 18 -26
-17 -72 -40 -51 -38 -84 2 -39 21 23 24 24 22 7 -2 -12 4 -21 16 -23 16 -4 18
0 12 32 -4 20 -5 36 -2 36 2 0 13 -19 25 -42 17 -36 19 -45 7 -53 -7 -6 -16
-21 -21 -33 -7 -24 -7 -24 56 -18 35 4 74 9 86 12 14 4 23 2 23 -5 0 -6 15
-10 33 -10 17 1 24 3 14 6 -16 4 -16 7 4 34 11 16 24 29 28 29 5 0 14 -20 21
-45 8 -28 20 -47 31 -50 11 -4 17 -11 14 -16 -4 -5 9 -9 28 -9 19 0 50 -2 68
-6 l34 -5 -30 17 c-16 9 -31 18 -32 19 -7 5 30 95 39 95 18 0 97 -64 98 -78 0
-26 -21 -52 -43 -52 -20 -1 -20 -2 6 -16 33 -18 87 -10 87 12 0 25 15 15 28
-18 6 -17 10 -33 8 -35 -2 -2 -16 3 -32 11 -40 21 -42 12 -5 -25 35 -34 57
-73 78 -134 13 -40 13 -40 8 -5 -3 19 -16 56 -29 83 -12 26 -21 47 -19 47 2 0
18 -7 35 -16 46 -24 116 -92 159 -156 158 -232 119 -531 -98 -740 -50 -48
-101 -82 -213 -142 -36 -19 -60 -35 -55 -36 6 0 41 16 78 36 37 19 67 32 67
28 0 -10 -43 -78 -54 -86 -6 -4 -16 -6 -23 -3 -27 9 -21 -13 6 -25 16 -6 38
-21 48 -33 10 -11 12 -17 6 -13 -22 12 -14 -6 11 -28 35 -31 76 -96 76 -121 0
-18 9 -24 58 -35 31 -7 66 -17 77 -23 19 -10 19 -9 3 10 -10 11 -18 22 -18 25
0 3 32 8 71 10 39 3 75 10 81 16 8 8 23 -4 55 -45 61 -79 58 -86 -26 -63 -38
11 -81 25 -97 32 -22 10 -28 10 -32 0 -2 -7 -21 -22 -43 -32 -44 -23 -52 -55
-21 -83 24 -22 39 -21 152 8 91 25 162 27 175 5 3 -4 -4 -19 -15 -33 -11 -14
-23 -40 -26 -59 -5 -31 -4 -31 10 7 14 36 77 105 95 105 4 0 14 -11 21 -25 16
-30 24 -31 61 -4 16 11 36 18 44 15 10 -3 12 0 8 12 -9 24 -23 32 -62 32 -30
0 -45 11 -116 85 -45 47 -88 85 -96 85 -9 0 -49 -11 -89 -25 -40 -14 -90 -25
-111 -25 -50 0 -121 31 -147 65 -48 61 -10 134 70 136 24 0 66 5 93 10 28 5
57 10 66 10 12 0 18 13 22 43 15 108 128 272 205 297 18 6 31 13 28 16 -11 11
-79 -21 -104 -48 -14 -16 -31 -29 -39 -29 -21 0 -29 31 -11 44 21 16 48 71 48
99 0 12 4 27 8 32 5 6 19 42 31 80 13 39 33 93 46 120 13 28 46 100 73 160
l50 110 61 -3 c34 -2 73 -7 87 -13 l26 -9 -26 -46 c-14 -26 -26 -51 -26 -56 0
-6 -16 -43 -35 -84 -19 -40 -35 -78 -35 -84 0 -6 -9 -28 -20 -50 -11 -22 -20
-53 -20 -70 0 -40 -51 -137 -85 -162 -5 -4 -1 -8 11 -8 31 0 60 -37 94 -120
17 -41 40 -84 51 -95 19 -19 21 -19 30 -2 15 26 37 21 41 -10 2 -14 9 -28 16
-31 9 -3 12 86 12 422 l0 425 -42 5 c-24 3 -59 7 -78 8 -19 2 -34 8 -33 14 1
7 -20 14 -52 17 -68 7 -107 26 -173 83 -87 76 -168 212 -227 379 -32 90 -47
115 -39 64 5 -33 4 -35 -53 -66 -32 -18 -87 -59 -121 -92 l-63 -61 -55 57
c-48 48 -54 59 -46 78 15 33 80 133 100 152 81 82 153 163 144 163 -32 0 -207
-207 -248 -292 -18 -38 -18 -38 -77 -38 -69 0 -109 -17 -163 -69 -25 -23 -54
-41 -77 -45 l-36 -7 19 38 c10 21 26 72 35 113 20 93 32 270 18 270 -6 0 -13
-41 -17 -92 -7 -93 -27 -206 -48 -268 l-12 -35 -12 65 c-6 36 -21 104 -31 153
-11 48 -16 87 -12 87 5 0 14 18 20 41 11 36 15 40 37 34 26 -6 52 9 52 31 0
12 -53 14 -309 14 l-309 0 49 -85 c27 -47 49 -90 49 -96 0 -5 11 -32 25 -59
14 -27 32 -70 41 -96 15 -43 15 -48 0 -56 -23 -13 -65 -60 -72 -80 -3 -10 -8
-18 -12 -18 -4 1 -35 38 -70 84 -34 45 -88 108 -119 139 l-57 57 -20 -33 c-84
-138 -139 -206 -245 -300 -98 -87 -217 -133 -295 -113 -47 12 -95 64 -112 122
-36 124 16 294 138 457 l59 77 -176 0 -175 0 1 -447z m2289 112 c7 -22 35 -82
62 -134 45 -85 49 -96 38 -120 -11 -24 -13 -24 -19 -7 -5 14 -10 16 -15 8 -4
-7 -4 -16 -1 -22 3 -5 0 -10 -7 -10 -10 0 -10 -2 1 -9 10 -7 4 -22 -30 -70
l-43 -61 -38 44 c-22 25 -61 60 -88 77 -40 26 -50 38 -50 60 0 15 5 31 10 34
6 3 10 -3 10 -14 0 -12 5 -21 11 -21 6 0 9 24 7 65 -1 41 2 69 10 77 17 17 16
44 -1 29 -8 -6 -17 -8 -20 -5 -7 8 9 52 26 69 21 20 111 64 118 57 4 -4 12
-25 19 -47z m-1946 -500 c-1 -74 3 -135 7 -135 9 0 91 121 124 182 20 39 36
44 18 5 -19 -40 -31 -73 -73 -198 -23 -68 -53 -150 -68 -182 l-26 -59 -45 7
c-25 4 -48 9 -50 11 -2 2 8 35 23 72 19 49 24 77 20 101 -11 54 16 304 34 319
34 26 37 14 36 -123z m2488 -392 c8 -17 8 -26 -2 -38 -16 -19 -6 -45 17 -45
16 0 18 -9 15 -95 -3 -84 -6 -97 -26 -112 -13 -10 -25 -25 -28 -33 -4 -10 -8
-4 -13 15 -4 17 -12 35 -19 40 -6 6 -19 25 -30 43 -16 30 -17 39 -6 78 7 25
17 41 23 37 5 -3 7 -1 3 5 -6 9 9 64 36 132 8 18 12 21 15 10 2 -8 9 -25 15
-37z"/>
<path d="M2672 2952 c59 -63 121 -169 155 -267 24 -70 28 -94 28 -200 0 -144
-12 -185 -63 -220 -26 -18 -31 -25 -18 -25 10 0 33 15 51 33 24 24 36 47 44
92 7 33 16 74 22 91 5 17 9 146 9 287 l0 257 -136 0 -137 0 45 -48z"/>
<path d="M1450 2150 c5 -31 -1 -40 -25 -40 -19 0 -25 5 -25 23 0 18 -2 19 -10
7 -6 -8 -7 -33 -4 -54 6 -35 4 -38 -12 -31 -11 4 -52 10 -91 12 -59 5 -84 1
-132 -17 -33 -12 -67 -30 -77 -41 -9 -10 -23 -19 -31 -19 -7 0 -13 -7 -13 -15
0 -7 -8 -19 -17 -24 -10 -6 -15 -11 -11 -11 4 0 0 -16 -8 -35 -65 -157 100
-370 340 -439 111 -33 179 -33 290 0 112 32 187 74 252 140 66 67 97 132 102
212 4 55 8 64 31 78 24 14 13 13 -23 -2 -9 -3 -19 3 -26 15 -6 12 -8 21 -4 21
3 0 -14 16 -38 37 -61 51 -122 76 -204 81 l-70 4 4 29 c5 35 -5 79 -18 79 -6
0 -5 -9 2 -21 11 -17 10 -22 -5 -34 -23 -16 -47 -9 -47 14 0 14 -2 14 -10 1
-5 -8 -10 -33 -10 -54 0 -42 -20 -65 -56 -66 -31 0 -50 25 -34 45 15 18 8 91
-10 109 -9 8 -11 7 -10 -4z m361 -175 c57 -20 85 -61 68 -99 -15 -32 -83 -66
-133 -66 -38 0 -103 28 -125 53 -26 33 16 99 75 117 43 13 66 12 115 -5z"/>
<path d="M2185 1929 c-61 -46 -145 -129 -145 -144 0 -7 8 -23 18 -35 l18 -23
88 36 c129 53 139 61 131 105 -10 52 -33 92 -53 92 -9 0 -35 -14 -57 -31z"/>
<path d="M2005 1686 c4 -15 -10 -34 -61 -83 -75 -71 -132 -106 -249 -155 -78
-32 -84 -33 -225 -33 -143 0 -146 0 -220 34 -112 50 -167 86 -254 170 -82 79
-94 79 -20 1 24 -25 75 -93 113 -152 73 -110 136 -173 226 -223 64 -37 54 -25
-25 28 -35 23 -65 47 -67 53 -10 29 132 45 196 23 26 -9 44 -7 103 12 64 20
77 21 126 11 31 -7 60 -16 65 -21 6 -6 -14 -28 -52 -57 -68 -52 -77 -64 -30
-37 51 29 133 107 221 212 45 53 99 114 120 135 21 22 38 43 38 48 0 19 19 6
28 -19 9 -25 11 -25 11 -6 1 12 -11 35 -25 50 -19 21 -24 23 -19 9z"/>
<path d="M1540 1027 c-66 -32 -72 -50 -67 -202 4 -144 17 -188 56 -193 39 -6
104 26 151 73 l43 44 -13 58 c-16 75 -83 218 -106 231 -14 8 -31 5 -64 -11z"/>
<path d="M1 719 l-1 -257 30 -12 c56 -23 97 -75 50 -63 -11 3 -20 9 -20 13 0
6 -44 30 -55 30 -3 0 -5 -47 -5 -104 0 -97 2 -105 25 -130 36 -38 59 -76 52
-83 -3 -3 -22 12 -42 32 l-35 38 0 -92 0 -91 128 0 127 1 -28 25 c-33 28 -27
43 25 70 39 20 38 49 -1 41 -41 -8 -44 1 -14 39 21 28 30 33 52 28 14 -4 32
-11 39 -17 25 -20 12 13 -21 50 -88 101 -100 139 -57 178 18 16 20 16 20 2 0
-9 6 -20 13 -24 6 -4 24 -24 38 -43 37 -49 76 -90 87 -90 16 0 47 -42 47 -64
0 -15 6 -20 20 -19 11 1 15 0 9 -3 -6 -3 -9 -27 -7 -62 l4 -57 -20 24 c-24 26
-51 22 -51 -9 0 -11 -3 -20 -8 -20 -16 0 -52 32 -47 41 3 5 -1 6 -9 3 -10 -4
-16 -1 -16 9 0 9 -4 18 -8 21 -4 2 -9 -24 -10 -60 l-2 -64 406 0 c288 0 403 3
399 11 -8 12 -34 117 -35 138 0 7 25 -8 55 -33 52 -45 75 -51 75 -21 0 8 8 30
17 49 l16 35 -57 75 c-31 41 -64 77 -73 80 -9 4 -25 -2 -39 -15 l-22 -21 -7
44 c-3 24 -9 52 -12 63 l-6 20 23 -20 c23 -20 23 -20 -2 25 -14 25 -30 62 -37
83 -9 26 -18 37 -32 37 -10 0 -19 -5 -19 -11 0 -15 -59 -89 -71 -89 -5 0 -9 9
-9 19 0 10 -9 29 -19 42 -16 20 -23 22 -46 14 -33 -12 -40 -23 -53 -95 -15
-83 -48 -160 -88 -205 -19 -22 -32 -32 -28 -22 8 21 -9 23 -26 2 -9 -10 -9
-15 -1 -15 6 0 11 -9 11 -20 0 -25 17 -27 23 -2 2 9 3 -9 3 -40 -1 -31 -4 -60
-8 -63 -3 -4 -17 16 -31 43 -14 28 -22 53 -19 57 4 3 -1 3 -11 -1 -14 -5 -15
-9 -6 -20 7 -9 8 -14 1 -14 -20 0 -20 28 -1 60 25 41 20 46 -22 21 -27 -17
-30 -21 -14 -22 l20 0 -20 -9 c-11 -5 -27 -9 -35 -9 -13 -1 -13 0 0 9 13 8 13
10 -1 10 -27 0 -20 46 12 75 32 28 36 50 13 80 -14 19 -16 19 -45 2 -18 -10
-51 -17 -82 -17 l-52 0 -42 63 c-46 70 -68 111 -88 167 -15 43 -10 53 37 64
38 9 58 33 58 70 0 46 -26 66 -85 66 -37 0 -55 6 -72 22 -19 17 -23 19 -17 5
6 -18 -10 -24 -21 -7 -3 5 -12 7 -20 4 -8 -3 -19 -3 -24 0 -14 9 -3 34 17 39
13 3 11 6 -9 15 -28 11 -65 63 -79 110 -5 16 -9 -78 -9 -229z m154 -31 c-3
-24 -10 -83 -15 -132 -5 -49 -11 -91 -13 -93 -3 -2 -26 5 -53 16 l-49 19 3 48
c2 27 10 54 18 60 9 7 14 30 14 62 0 55 4 59 68 61 l33 1 -6 -42z"/>
<path d="M1081 942 c-30 -42 -61 -145 -61 -202 0 -97 51 -164 119 -158 l36 3
3 180 c2 160 1 181 -15 192 -28 21 -60 15 -82 -15z"/>
<path d="M2433 729 c-37 -23 -42 -51 -17 -87 21 -31 13 -37 -31 -22 -20 7 -38
10 -39 8 -5 -6 -43 -92 -49 -110 -4 -10 -14 -18 -24 -18 -10 0 -28 -3 -40 -6
-21 -6 -23 -3 -23 35 0 43 -12 51 -49 31 -17 -9 -17 -7 -2 48 16 57 16 57 21
22 l6 -35 6 39 c6 31 4 42 -10 52 -15 11 -18 8 -24 -29 -4 -23 -13 -55 -20
-71 -10 -25 -13 -27 -18 -10 -5 14 -11 6 -24 -33 -10 -31 -22 -50 -29 -48 -7
3 -22 -19 -36 -50 -13 -30 -27 -55 -31 -55 -4 0 -13 -14 -20 -30 -7 -17 -36
-52 -65 -78 -73 -66 -87 -91 -79 -139 10 -65 15 -69 73 -57 l51 11 0 -49 c0
-26 5 -48 10 -48 6 0 10 35 10 85 l0 85 55 27 c30 15 57 24 60 21 3 -3 -1 -25
-9 -49 -28 -84 -28 -83 37 -80 70 3 73 -8 11 -52 l-46 -32 148 -3 c81 -1 148
-1 151 1 6 7 -27 77 -38 77 -5 0 -23 -10 -39 -22 -16 -12 -31 -20 -33 -17 -2
2 -13 20 -25 39 l-21 35 39 32 c35 30 38 31 43 13 3 -13 11 -18 21 -14 9 3 16
10 16 16 0 5 -4 6 -10 3 -5 -3 -10 3 -10 15 0 17 -6 21 -27 20 -56 -4 -56 -2
-25 54 30 53 32 77 5 54 -8 -6 -34 -14 -59 -18 -61 -9 -58 9 10 60 39 30 57
51 62 73 3 18 14 50 24 72 10 22 23 55 30 73 21 55 40 35 40 -44 l0 -44 33 13
c17 8 44 17 60 21 26 6 27 5 21 -21 -3 -16 -12 -40 -19 -55 -13 -27 -13 -28
16 -28 25 0 30 -5 36 -30 6 -30 17 -38 28 -20 3 6 13 10 22 10 29 0 -3 -24
-91 -69 -46 -23 -92 -51 -101 -61 -16 -18 -15 -19 27 -29 23 -6 75 -20 115
-31 86 -24 112 -25 120 -4 4 11 13 13 37 8 17 -3 33 -10 36 -14 3 -5 20 -10
37 -12 l32 -3 -54 -72 c-30 -40 -55 -75 -55 -78 0 -3 8 -5 18 -5 10 0 28 17
42 41 31 50 104 126 130 134 18 6 20 15 20 88 l0 82 -20 -33 c-11 -17 -25 -32
-31 -32 -6 0 -28 18 -48 41 l-36 41 -70 -32 c-72 -33 -156 -62 -163 -56 -2 2
9 10 25 18 15 8 37 19 48 25 34 18 198 82 230 88 71 16 65 1 65 176 0 177 5
167 -75 141 -57 -19 -65 -39 -46 -103 10 -34 15 -38 49 -41 l37 -3 -32 -19
c-18 -11 -30 -23 -27 -28 3 -4 -5 -12 -18 -17 -13 -6 -17 -10 -10 -10 6 -1 12
-8 12 -16 0 -19 -2 -19 -47 0 -35 15 -38 15 -57 -6 -12 -12 -16 -19 -9 -15 6
3 14 2 17 -3 8 -12 -4 -41 -16 -41 -7 0 -6 5 1 13 8 11 6 13 -12 11 -12 -1
-26 -3 -30 -3 -5 -1 -6 -5 -3 -10 11 -17 -19 -18 -31 -2 -10 14 -11 12 -7 -9
3 -14 2 -20 -3 -14 -4 5 -22 16 -40 23 l-31 13 13 39 c8 22 12 46 9 54 -6 15
3 15 65 -4 19 -6 43 -18 54 -28 15 -14 19 -15 15 -3 -2 8 -18 22 -33 30 -38
20 -55 39 -115 138 -29 45 -55 82 -58 82 -4 0 -22 -10 -39 -21z"/>
<path d="M1578 510 c-24 -15 -37 -61 -46 -170 -11 -120 -8 -130 33 -130 38 0
50 13 97 101 60 113 72 178 34 192 -32 12 -102 16 -118 7z"/>
<path d="M1719 132 c-71 -48 -110 -87 -107 -107 3 -18 11 -20 97 -23 l94 -3
-7 67 c-4 37 -9 71 -12 76 -8 13 -37 9 -65 -10z"/>
</g>
</svg>
